<svg xmlns="http://www.w3.org/2000/svg" width="1180" height="557" viewBox="0 0 1180 557" role="img" aria-labelledby="title desc">
<title id="title">BCF: proof becomes a working PE patch</title>
<desc id="desc">The same generic proof-and-patch workflow worked across two implementations. JNE becomes JMP + NOP. Reachable flow shrinks; predicate arithmetic and dead bytes stay in the PE.</desc>
<rect width="1180" height="557" fill="white"/>
<text x="40" y="31" fill="#546776" font-family="Arial, Helvetica, sans-serif" font-size="12.5" font-weight="700">SEEING THROUGH OBFUSCATION  /  TABLE 08</text>
<text x="40" y="80" fill="#183B50" font-family="Arial, Helvetica, sans-serif" font-size="34" font-weight="700">BCF: proof becomes a working PE patch</text>
<text x="40" y="119" fill="#546776" font-family="Arial, Helvetica, sans-serif" font-size="18" font-weight="400">The same generic proof-and-patch workflow worked across two implementations.</text>
<rect x="40" y="149" width="1100" height="46" fill="#183B50" rx="0"/>
<text x="52" y="177" fill="#FFFFFF" font-family="Arial, Helvetica, sans-serif" font-size="17" font-weight="700">O0 target</text>
<text x="272" y="177" fill="#FFFFFF" font-family="Arial, Helvetica, sans-serif" font-size="17" font-weight="700">Proved / patched gates</text>
<text x="525" y="177" fill="#FFFFFF" font-family="Arial, Helvetica, sans-serif" font-size="17" font-weight="700">Reachable CFG blocks</text>
<text x="844" y="177" fill="#FFFFFF" font-family="Arial, Helvetica, sans-serif" font-size="17" font-weight="700">Retained validation</text>
<rect x="40" y="195" width="1100" height="93" fill="#FFFFFF" rx="0"/>
<rect x="40" y="195" width="220" height="93" fill="#ECF2F5" rx="0"/>
<text x="54" y="248.5" fill="#172C3D" font-family="Arial, Helvetica, sans-serif" font-size="18.5" font-weight="700">OLLVM BCF</text>
<rect x="260" y="195" width="253" height="93" fill="#E3F3EB" rx="0"/>
<text x="274" y="248.5" fill="#15533A" font-family="Arial, Helvetica, sans-serif" font-size="18.5" font-weight="700">22 / 22</text>
<text x="527" y="225.5" fill="#172C3D" font-family="Arial, Helvetica, sans-serif" font-size="18.5" font-weight="400">11 clean</text>
<text x="527" y="248.5" fill="#172C3D" font-family="Arial, Helvetica, sans-serif" font-size="18.5" font-weight="400">70 original</text>
<text x="527" y="271.5" fill="#172C3D" font-family="Arial, Helvetica, sans-serif" font-size="18.5" font-weight="400">37 rewritten</text>
<rect x="832" y="195" width="308" height="93" fill="#E3F3EB" rx="0"/>
<text x="846" y="237" fill="#15533A" font-family="Arial, Helvetica, sans-serif" font-size="18.5" font-weight="700">PASS</text>
<text x="846" y="260" fill="#15533A" font-family="Arial, Helvetica, sans-serif" font-size="18.5" font-weight="400">4,591 triples; 0 mismatches</text>
<line x1="40" y1="288" x2="1140" y2="288" stroke="#D9E2E8" stroke-width="1"/>
<rect x="40" y="288" width="1100" height="93" fill="#F5F8FA" rx="0"/>
<rect x="40" y="288" width="220" height="93" fill="#ECF2F5" rx="0"/>
<text x="54" y="341.5" fill="#172C3D" font-family="Arial, Helvetica, sans-serif" font-size="18.5" font-weight="700">Polaris BCF</text>
<rect x="260" y="288" width="253" height="93" fill="#E3F3EB" rx="0"/>
<text x="274" y="341.5" fill="#15533A" font-family="Arial, Helvetica, sans-serif" font-size="18.5" font-weight="700">16 / 16</text>
<text x="527" y="318.5" fill="#172C3D" font-family="Arial, Helvetica, sans-serif" font-size="18.5" font-weight="400">11 clean</text>
<text x="527" y="341.5" fill="#172C3D" font-family="Arial, Helvetica, sans-serif" font-size="18.5" font-weight="400">54 original</text>
<text x="527" y="364.5" fill="#172C3D" font-family="Arial, Helvetica, sans-serif" font-size="18.5" font-weight="400">30 rewritten</text>
<rect x="832" y="288" width="308" height="93" fill="#E3F3EB" rx="0"/>
<text x="846" y="330" fill="#15533A" font-family="Arial, Helvetica, sans-serif" font-size="18.5" font-weight="700">PASS</text>
<text x="846" y="353" fill="#15533A" font-family="Arial, Helvetica, sans-serif" font-size="18.5" font-weight="400">4,598 triples; 0 mismatches</text>
<line x1="40" y1="381" x2="1140" y2="381" stroke="#D9E2E8" stroke-width="1"/>
<line x1="260" y1="195" x2="260" y2="381" stroke="#E0E7EC" stroke-width="1"/>
<line x1="513" y1="195" x2="513" y2="381" stroke="#E0E7EC" stroke-width="1"/>
<line x1="832" y1="195" x2="832" y2="381" stroke="#E0E7EC" stroke-width="1"/>
<rect x="40" y="403" width="1100" height="51" fill="#E8F2F6" rx="5"/>
<text x="59" y="434" fill="#183B50" font-family="Arial, Helvetica, sans-serif" font-size="18" font-weight="700">JNE becomes JMP + NOP. Reachable flow shrinks; predicate arithmetic and dead bytes stay in the PE.</text>
<text x="40" y="483.5" fill="#546776" font-family="Arial, Helvetica, sans-serif" font-size="13.5" font-weight="400">A triple compares clean/original/rewrite. Dedicated PE CFG audit: calls do not split blocks; RET is terminal.</text>
<rect x="40" y="502" width="12" height="12" fill="#E3F3EB" rx="0"/>
<text x="58" y="513" fill="#15533A" font-family="Arial, Helvetica, sans-serif" font-size="12.5" font-weight="400">Validated</text>
<rect x="135.124" y="502" width="12" height="12" fill="#FFF0D5" rx="0"/>
<text x="153.124" y="513" fill="#744700" font-family="Arial, Helvetica, sans-serif" font-size="12.5" font-weight="400">Qualified / incomplete</text>
<rect x="298.327" y="502" width="12" height="12" fill="#FCE5E8" rx="0"/>
<text x="316.327" y="513" fill="#922838" font-family="Arial, Helvetica, sans-serif" font-size="12.5" font-weight="400">Wrong / invalid</text>
<rect x="423.999" y="502" width="12" height="12" fill="#E7F0FA" rx="0"/>
<text x="441.999" y="513" fill="#224F78" font-family="Arial, Helvetica, sans-serif" font-size="12.5" font-weight="400">Observation</text>
<rect x="534.394" y="502" width="12" height="12" fill="#EEF1F4" rx="0"/>
<text x="552.394" y="513" fill="#465462" font-family="Arial, Helvetica, sans-serif" font-size="12.5" font-weight="400">Not produced</text>
<text x="40" y="533" fill="#546776" font-family="Arial, Helvetica, sans-serif" font-size="12" font-weight="400">Windows x64 | Retained samples only | Source keys in SOURCES.md</text>
</svg>
