<?xml version="1.0" encoding="UTF-8" standalone="no"?>
<!DOCTYPE svg PUBLIC "-//W3C//DTD SVG 1.1//EN"
 "http://www.w3.org/Graphics/SVG/1.1/DTD/svg11.dtd">
<!-- Generated by graphviz version 16.1.0 (20260904.0139)
 -->
<!-- Title: cfg Pages: 1 -->
<svg width="393pt" height="1146pt"
 viewBox="0.00 0.00 393.00 1146.00" xmlns="http://www.w3.org/2000/svg" xmlns:xlink="http://www.w3.org/1999/xlink">
<g id="graph0" class="graph" transform="scale(1 1) rotate(0) translate(4 1142.39)">
<title>cfg</title>
<polygon fill="white" stroke="none" points="-4,4 -4,-1142.39 389,-1142.39 389,4 -4,4"/>
<text xml:space="preserve" text-anchor="middle" x="192.5" y="-1121.09" font-family="Segoe UI" font-size="14.00">tigress&#45;add_opaque&#45;O0 AFTER | unreachable nodes omitted</text>
<text xml:space="preserve" text-anchor="middle" x="192.5" y="-1101.59" font-family="Segoe UI" font-size="14.00">initialized main state | NOT a rewritten executable</text>
<!-- n5368713488 -->
<g id="node1" class="node">
<title>n5368713488</title>
<polygon fill="#edf3fc" stroke="black" points="257.7,-1091.39 117.3,-1091.39 117.3,-1046.12 257.7,-1046.12 257.7,-1091.39"/>
<text xml:space="preserve" text-anchor="middle" x="187.5" y="-1075.18" font-family="Consolas" font-size="11.00">0x140001110 | 7 insns</text>
<text xml:space="preserve" text-anchor="middle" x="187.5" y="-1063.93" font-family="Consolas" font-size="11.00">jne 0x140001144</text>
<text xml:space="preserve" text-anchor="middle" x="187.5" y="-1052.68" font-family="Consolas" font-size="11.00">GENUINE / TWO&#45;SIDED</text>
</g>
<!-- n5368713527 -->
<g id="node2" class="node">
<title>n5368713527</title>
<polygon fill="#ffffff" stroke="black" points="174.7,-995.87 34.3,-995.87 34.3,-959.87 174.7,-959.87 174.7,-995.87"/>
<text xml:space="preserve" text-anchor="middle" x="104.5" y="-978.67" font-family="Consolas" font-size="11.00">0x140001137 | 4 insns</text>
<text xml:space="preserve" text-anchor="middle" x="104.5" y="-967.42" font-family="Consolas" font-size="11.00">jmp 0x14000114f</text>
</g>
<!-- n5368713488&#45;&gt;n5368713527 -->
<g id="edge2" class="edge">
<title>n5368713488&#45;&gt;n5368713527</title>
<path fill="none" stroke="#555555" d="M166.98,-1045.78C155.25,-1033.22 140.48,-1017.4 128.24,-1004.29"/>
<polygon fill="#555555" stroke="#555555" points="131.04,-1002.16 121.66,-997.24 125.92,-1006.94 131.04,-1002.16"/>
<text xml:space="preserve" text-anchor="middle" x="175.49" y="-1018.62" font-family="Segoe UI" font-size="10.00">fall&#45;through</text>
</g>
<!-- n5368713540 -->
<g id="node3" class="node">
<title>n5368713540</title>
<polygon fill="#ffffff" stroke="black" points="350.7,-995.87 192.3,-995.87 192.3,-959.87 350.7,-959.87 350.7,-995.87"/>
<text xml:space="preserve" text-anchor="middle" x="271.5" y="-978.67" font-family="Consolas" font-size="11.00">0x140001144 | 3 insns</text>
<text xml:space="preserve" text-anchor="middle" x="271.5" y="-967.42" font-family="Consolas" font-size="11.00">mov dword ptr [rsp], eax</text>
</g>
<!-- n5368713488&#45;&gt;n5368713540 -->
<g id="edge1" class="edge">
<title>n5368713488&#45;&gt;n5368713540</title>
<path fill="none" stroke="#555555" d="M208.26,-1045.78C220.14,-1033.22 235.09,-1017.4 247.47,-1004.29"/>
<polygon fill="#555555" stroke="#555555" points="249.82,-1006.91 254.14,-997.24 244.73,-1002.1 249.82,-1006.91"/>
<text xml:space="preserve" text-anchor="middle" x="249.77" y="-1018.62" font-family="Segoe UI" font-size="10.00">taken</text>
</g>
<!-- n5368713551 -->
<g id="node4" class="node">
<title>n5368713551</title>
<polygon fill="#edf3fc" stroke="black" points="257.7,-922.87 117.3,-922.87 117.3,-877.6 257.7,-877.6 257.7,-922.87"/>
<text xml:space="preserve" text-anchor="middle" x="187.5" y="-906.66" font-family="Consolas" font-size="11.00">0x14000114f | 2 insns</text>
<text xml:space="preserve" text-anchor="middle" x="187.5" y="-895.41" font-family="Consolas" font-size="11.00">jbe 0x140001164</text>
<text xml:space="preserve" text-anchor="middle" x="187.5" y="-884.16" font-family="Consolas" font-size="11.00">GENUINE / TWO&#45;SIDED</text>
</g>
<!-- n5368713527&#45;&gt;n5368713551 -->
<g id="edge3" class="edge">
<title>n5368713527&#45;&gt;n5368713551</title>
<path fill="none" stroke="#555555" d="M123.33,-959.71C132.69,-951.18 144.27,-940.63 155.01,-930.85"/>
<polygon fill="#555555" stroke="#555555" points="157.22,-933.56 162.26,-924.24 152.51,-928.39 157.22,-933.56"/>
</g>
<!-- n5368713540&#45;&gt;n5368713551 -->
<g id="edge4" class="edge">
<title>n5368713540&#45;&gt;n5368713551</title>
<path fill="none" stroke="#555555" d="M252.44,-959.71C242.97,-951.18 231.25,-940.63 220.39,-930.85"/>
<polygon fill="#555555" stroke="#555555" points="222.81,-928.32 213.04,-924.23 218.13,-933.52 222.81,-928.32"/>
</g>
<!-- n5368713561 -->
<g id="node5" class="node">
<title>n5368713561</title>
<polygon fill="#ffffff" stroke="black" points="209.7,-827.35 51.3,-827.35 51.3,-791.35 209.7,-791.35 209.7,-827.35"/>
<text xml:space="preserve" text-anchor="middle" x="130.5" y="-810.15" font-family="Consolas" font-size="11.00">0x140001159 | 3 insns</text>
<text xml:space="preserve" text-anchor="middle" x="130.5" y="-798.9" font-family="Consolas" font-size="11.00">mov dword ptr [rsp], eax</text>
</g>
<!-- n5368713551&#45;&gt;n5368713561 -->
<g id="edge6" class="edge">
<title>n5368713551&#45;&gt;n5368713561</title>
<path fill="none" stroke="#555555" d="M173.41,-877.26C165.66,-865.18 155.98,-850.08 147.77,-837.28"/>
<polygon fill="#555555" stroke="#555555" points="150.74,-835.42 142.39,-828.89 144.84,-839.2 150.74,-835.42"/>
<text xml:space="preserve" text-anchor="middle" x="187.71" y="-850.1" font-family="Segoe UI" font-size="10.00">fall&#45;through</text>
</g>
<!-- n5368713572 -->
<g id="node6" class="node">
<title>n5368713572</title>
<polygon fill="#edf3fc" stroke="black" points="257.7,-754.35 117.3,-754.35 117.3,-709.08 257.7,-709.08 257.7,-754.35"/>
<text xml:space="preserve" text-anchor="middle" x="187.5" y="-738.14" font-family="Consolas" font-size="11.00">0x140001164 | 4 insns</text>
<text xml:space="preserve" text-anchor="middle" x="187.5" y="-726.89" font-family="Consolas" font-size="11.00">jne 0x140001273</text>
<text xml:space="preserve" text-anchor="middle" x="187.5" y="-715.64" font-family="Consolas" font-size="11.00">GENUINE / TWO&#45;SIDED</text>
</g>
<!-- n5368713551&#45;&gt;n5368713572 -->
<g id="edge5" class="edge">
<title>n5368713551&#45;&gt;n5368713572</title>
<path fill="none" stroke="#555555" d="M208.72,-877.32C212.73,-871.92 216.34,-865.88 218.5,-859.6 228.38,-830.92 225.8,-820.79 218.5,-791.35 216.26,-782.31 212.34,-773.14 208.03,-764.81"/>
<polygon fill="#555555" stroke="#555555" points="211.11,-763.15 203.19,-756.11 204.99,-766.55 211.11,-763.15"/>
<text xml:space="preserve" text-anchor="middle" x="237.73" y="-806.97" font-family="Segoe UI" font-size="10.00">taken</text>
</g>
<!-- n5368713561&#45;&gt;n5368713572 -->
<g id="edge7" class="edge">
<title>n5368713561&#45;&gt;n5368713572</title>
<path fill="none" stroke="#555555" d="M143.43,-791.19C149.54,-783.08 157.03,-773.15 164.09,-763.78"/>
<polygon fill="#555555" stroke="#555555" points="166.8,-766 170.02,-755.91 161.21,-761.79 166.8,-766"/>
</g>
<!-- n5368713590 -->
<g id="node7" class="node">
<title>n5368713590</title>
<polygon fill="#e6f4ea" stroke="black" points="209.7,-658.83 63.3,-658.83 63.3,-613.56 209.7,-613.56 209.7,-658.83"/>
<text xml:space="preserve" text-anchor="middle" x="136.5" y="-642.62" font-family="Consolas" font-size="11.00">0x140001176 | 32 insns</text>
<text xml:space="preserve" text-anchor="middle" x="136.5" y="-631.37" font-family="Consolas" font-size="11.00">jne 0x140001273</text>
<text xml:space="preserve" text-anchor="middle" x="136.5" y="-620.12" font-family="Consolas" font-size="11.00">PROVEN ALWAYS&#45;FALSE</text>
</g>
<!-- n5368713572&#45;&gt;n5368713590 -->
<g id="edge9" class="edge">
<title>n5368713572&#45;&gt;n5368713590</title>
<path fill="none" stroke="#555555" d="M175.67,-709.02C169.22,-697.19 161.1,-682.31 153.94,-669.17"/>
<polygon fill="#555555" stroke="#555555" points="157.03,-667.52 149.17,-660.42 150.88,-670.88 157.03,-667.52"/>
<text xml:space="preserve" text-anchor="middle" x="192.05" y="-681.58" font-family="Segoe UI" font-size="10.00">fall&#45;through</text>
</g>
<!-- n5368713843 -->
<g id="node10" class="node">
<title>n5368713843</title>
<polygon fill="#edf3fc" stroke="black" points="255.7,-394.79 115.3,-394.79 115.3,-349.52 255.7,-349.52 255.7,-394.79"/>
<text xml:space="preserve" text-anchor="middle" x="185.5" y="-378.58" font-family="Consolas" font-size="11.00">0x140001273 | 4 insns</text>
<text xml:space="preserve" text-anchor="middle" x="185.5" y="-367.33" font-family="Consolas" font-size="11.00">jne 0x14000129d</text>
<text xml:space="preserve" text-anchor="middle" x="185.5" y="-356.08" font-family="Consolas" font-size="11.00">GENUINE / TWO&#45;SIDED</text>
</g>
<!-- n5368713572&#45;&gt;n5368713843 -->
<g id="edge8" class="edge">
<title>n5368713572&#45;&gt;n5368713843</title>
<path fill="none" stroke="#555555" d="M210.72,-708.61C215.45,-703.23 220.03,-697.24 223.5,-691.08 235.76,-669.31 239.5,-662.18 239.5,-637.19 239.5,-637.19 239.5,-637.19 239.5,-448.79 239.5,-431.88 230.45,-416.14 219.76,-403.44"/>
<polygon fill="#555555" stroke="#555555" points="222.54,-401.3 213.21,-396.28 217.37,-406.02 222.54,-401.3"/>
<text xml:space="preserve" text-anchor="middle" x="252.25" y="-538.3" font-family="Segoe UI" font-size="10.00">taken</text>
</g>
<!-- n5368713715 -->
<g id="node8" class="node">
<title>n5368713715</title>
<polygon fill="#e6f4ea" stroke="black" points="203.7,-563.31 57.3,-563.31 57.3,-518.04 203.7,-518.04 203.7,-563.31"/>
<text xml:space="preserve" text-anchor="middle" x="130.5" y="-547.1" font-family="Consolas" font-size="11.00">0x1400011f3 | 30 insns</text>
<text xml:space="preserve" text-anchor="middle" x="130.5" y="-535.85" font-family="Consolas" font-size="11.00">jne 0x140001273</text>
<text xml:space="preserve" text-anchor="middle" x="130.5" y="-524.6" font-family="Consolas" font-size="11.00">PROVEN ALWAYS&#45;FALSE</text>
</g>
<!-- n5368713590&#45;&gt;n5368713715 -->
<g id="edge10" class="edge">
<title>n5368713590&#45;&gt;n5368713715</title>
<path fill="none" stroke="#555555" d="M135.11,-613.5C134.37,-602.02 133.45,-587.67 132.63,-574.82"/>
<polygon fill="#555555" stroke="#555555" points="136.13,-574.84 132,-565.08 129.15,-575.29 136.13,-574.84"/>
<text xml:space="preserve" text-anchor="middle" x="160.86" y="-586.06" font-family="Segoe UI" font-size="10.00">fall&#45;through</text>
</g>
<!-- n5368713832 -->
<g id="node9" class="node">
<title>n5368713832</title>
<polygon fill="#ffffff" stroke="black" points="211.7,-467.79 53.3,-467.79 53.3,-431.79 211.7,-431.79 211.7,-467.79"/>
<text xml:space="preserve" text-anchor="middle" x="132.5" y="-450.59" font-family="Consolas" font-size="11.00">0x140001268 | 3 insns</text>
<text xml:space="preserve" text-anchor="middle" x="132.5" y="-439.34" font-family="Consolas" font-size="11.00">mov dword ptr [rsp], eax</text>
</g>
<!-- n5368713715&#45;&gt;n5368713832 -->
<g id="edge11" class="edge">
<title>n5368713715&#45;&gt;n5368713832</title>
<path fill="none" stroke="#555555" d="M130.99,-517.7C131.26,-506.09 131.58,-491.71 131.86,-479.25"/>
<polygon fill="#555555" stroke="#555555" points="135.35,-479.65 132.08,-469.57 128.35,-479.49 135.35,-479.65"/>
<text xml:space="preserve" text-anchor="middle" x="158.68" y="-490.54" font-family="Segoe UI" font-size="10.00">fall&#45;through</text>
</g>
<!-- n5368713832&#45;&gt;n5368713843 -->
<g id="edge12" class="edge">
<title>n5368713832&#45;&gt;n5368713843</title>
<path fill="none" stroke="#555555" d="M144.53,-431.63C150.15,-423.6 157.02,-413.79 163.52,-404.52"/>
<polygon fill="#555555" stroke="#555555" points="166.35,-406.58 169.23,-396.38 160.62,-402.56 166.35,-406.58"/>
</g>
<!-- n5368713854 -->
<g id="node11" class="node">
<title>n5368713854</title>
<polygon fill="#e6f4ea" stroke="black" points="205.7,-299.27 65.3,-299.27 65.3,-254 205.7,-254 205.7,-299.27"/>
<text xml:space="preserve" text-anchor="middle" x="135.5" y="-283.06" font-family="Consolas" font-size="11.00">0x14000127e | 3 insns</text>
<text xml:space="preserve" text-anchor="middle" x="135.5" y="-271.81" font-family="Consolas" font-size="11.00">je 0x140001290</text>
<text xml:space="preserve" text-anchor="middle" x="135.5" y="-260.56" font-family="Consolas" font-size="11.00">PROVEN ALWAYS&#45;TRUE</text>
</g>
<!-- n5368713843&#45;&gt;n5368713854 -->
<g id="edge14" class="edge">
<title>n5368713843&#45;&gt;n5368713854</title>
<path fill="none" stroke="#555555" d="M170.97,-349.23C167.4,-343.55 163.69,-337.38 160.5,-331.52 156.8,-324.72 153.12,-317.28 149.77,-310.16"/>
<polygon fill="#555555" stroke="#555555" points="152.96,-308.71 145.6,-301.09 146.6,-311.63 152.96,-308.71"/>
<text xml:space="preserve" text-anchor="middle" x="187.5" y="-322.02" font-family="Segoe UI" font-size="10.00">fall&#45;through</text>
</g>
<!-- n5368713885 -->
<g id="node14" class="node">
<title>n5368713885</title>
<polygon fill="#ffffff" stroke="black" points="318.7,-236 160.3,-236 160.3,-200 318.7,-200 318.7,-236"/>
<text xml:space="preserve" text-anchor="middle" x="239.5" y="-218.8" font-family="Consolas" font-size="11.00">0x14000129d | 3 insns</text>
<text xml:space="preserve" text-anchor="middle" x="239.5" y="-207.55" font-family="Consolas" font-size="11.00">mov dword ptr [rsp], eax</text>
</g>
<!-- n5368713843&#45;&gt;n5368713885 -->
<g id="edge13" class="edge">
<title>n5368713843&#45;&gt;n5368713885</title>
<path fill="none" stroke="#555555" d="M204.09,-349.1C207.99,-343.62 211.76,-337.58 214.5,-331.52 226.73,-304.51 233.18,-271.07 236.44,-247.69"/>
<polygon fill="#555555" stroke="#555555" points="239.89,-248.34 237.68,-237.98 232.94,-247.45 239.89,-248.34"/>
<text xml:space="preserve" text-anchor="middle" x="232.31" y="-322.02" font-family="Segoe UI" font-size="10.00">taken</text>
</g>
<!-- n5368713872 -->
<g id="node12" class="node">
<title>n5368713872</title>
<polygon fill="#ffffff" stroke="black" points="209.7,-182 51.3,-182 51.3,-146 209.7,-146 209.7,-182"/>
<text xml:space="preserve" text-anchor="middle" x="130.5" y="-164.8" font-family="Consolas" font-size="11.00">0x140001290 | 3 insns</text>
<text xml:space="preserve" text-anchor="middle" x="130.5" y="-153.55" font-family="Consolas" font-size="11.00">mov dword ptr [rsp], eax</text>
</g>
<!-- n5368713854&#45;&gt;n5368713872 -->
<g id="edge15" class="edge">
<title>n5368713854&#45;&gt;n5368713872</title>
<path fill="none" stroke="#555555" d="M129.24,-253.58C127.9,-247.9 126.68,-241.76 126,-236 124.12,-220.11 124.98,-215.97 126,-200 126.13,-197.93 126.31,-195.8 126.51,-193.66"/>
<polygon fill="#555555" stroke="#555555" points="129.97,-194.24 127.64,-183.91 123.02,-193.44 129.97,-194.24"/>
<text xml:space="preserve" text-anchor="middle" x="138.75" y="-215.62" font-family="Segoe UI" font-size="10.00">taken</text>
</g>
<!-- n5368713883 -->
<g id="node13" class="node">
<title>n5368713883</title>
<polygon fill="#ffffff" stroke="black" points="208.7,-109 68.3,-109 68.3,-73 208.7,-73 208.7,-109"/>
<text xml:space="preserve" text-anchor="middle" x="138.5" y="-91.8" font-family="Consolas" font-size="11.00">0x14000129b | 1 insns</text>
<text xml:space="preserve" text-anchor="middle" x="138.5" y="-80.55" font-family="Consolas" font-size="11.00">jmp 0x1400012a8</text>
</g>
<!-- n5368713872&#45;&gt;n5368713883 -->
<g id="edge16" class="edge">
<title>n5368713872&#45;&gt;n5368713883</title>
<path fill="none" stroke="#555555" d="M132.44,-145.81C133.3,-138.14 134.34,-128.89 135.32,-120.24"/>
<polygon fill="#555555" stroke="#555555" points="138.77,-120.86 136.41,-110.53 131.81,-120.08 138.77,-120.86"/>
</g>
<!-- n5368713896 -->
<g id="node15" class="node">
<title>n5368713896</title>
<polygon fill="#ffffff" stroke="black" points="259.7,-36 119.3,-36 119.3,0 259.7,0 259.7,-36"/>
<text xml:space="preserve" text-anchor="middle" x="189.5" y="-18.8" font-family="Consolas" font-size="11.00">0x1400012a8 | 3 insns</text>
<text xml:space="preserve" text-anchor="middle" x="189.5" y="-7.55" font-family="Consolas" font-size="11.00">ret</text>
</g>
<!-- n5368713883&#45;&gt;n5368713896 -->
<g id="edge17" class="edge">
<title>n5368713883&#45;&gt;n5368713896</title>
<path fill="none" stroke="#555555" d="M150.85,-72.81C156.8,-64.53 164.06,-54.41 170.69,-45.19"/>
<polygon fill="#555555" stroke="#555555" points="173.39,-47.42 176.39,-37.26 167.71,-43.34 173.39,-47.42"/>
</g>
<!-- n5368713885&#45;&gt;n5368713896 -->
<g id="edge18" class="edge">
<title>n5368713885&#45;&gt;n5368713896</title>
<path fill="none" stroke="#555555" d="M238.68,-199.73C236.97,-172.28 231.92,-117.24 217.5,-73 214.56,-63.96 210.22,-54.61 205.84,-46.27"/>
<polygon fill="#555555" stroke="#555555" points="208.99,-44.74 201.09,-37.69 202.87,-48.13 208.99,-44.74"/>
</g>
</g>
</svg>
